<svg width="65" height="109" viewBox="0 0 65 109" fill="none" xmlns="http://www.w3.org/2000/svg">
<path d="M12.4536 62L12.1252 62.377L12.4536 62ZM56.4536 62L56.8406 62.3166L56.4536 62ZM56.4536 26L56.764 25.608L56.4536 26ZM27.9536 22.5L27.7133 22.0615L27.9536 22.5ZM27.9536 78L27.5215 78.2516L27.9536 78ZM53.4536 108.5L52.2123 102.862L47.9499 106.756L53.4536 108.5ZM1.45324 1C0.954849 0.959867 0.954828 0.96013 0.954792 0.960576C0.954761 0.960969 0.95471 0.961598 0.954648 0.962382C0.954522 0.963951 0.954339 0.966249 0.9541 0.969269C0.953622 0.975311 0.952918 0.984247 0.951999 0.996038C0.950162 1.01962 0.947467 1.05462 0.943999 1.10072C0.937065 1.19292 0.927043 1.32954 0.914623 1.50802C0.889784 1.86498 0.855354 2.38945 0.816857 3.06111C0.739865 4.40439 0.646591 6.3367 0.58125 8.69555C0.450595 13.4123 0.431499 19.8391 0.878528 26.6744C1.32537 33.5067 2.23891 40.7638 3.97953 47.135C5.71622 53.4918 8.29552 59.0403 12.1252 62.377L12.7821 61.623C9.17711 58.482 6.66404 53.1667 4.94417 46.8714C3.22823 40.5905 2.321 33.4073 1.8764 26.6091C1.43198 19.8138 1.45077 13.4197 1.58087 8.72324C1.6459 6.37548 1.73871 4.4531 1.81522 3.11833C1.85347 2.45097 1.88764 1.93058 1.91221 1.57743C1.9245 1.40087 1.93438 1.26611 1.94118 1.17572C1.94458 1.13052 1.94721 1.09641 1.94898 1.07371C1.94986 1.06235 1.95053 1.05385 1.95098 1.04825C1.9512 1.04544 1.95136 1.04336 1.95147 1.04201C1.95153 1.04133 1.95156 1.04086 1.95159 1.04052C1.95161 1.04024 1.95162 1.04013 1.45324 1ZM12.1252 62.377C25.2054 73.7737 45.715 75.9146 56.8406 62.3166L56.0667 61.6834C45.4304 74.6833 25.6126 72.8021 12.7821 61.623L12.1252 62.377ZM56.8406 62.3166C61.353 56.8015 64.1554 49.8811 64.4253 43.2122C64.6955 36.5333 62.4225 30.0876 56.764 25.608L56.1433 26.392C61.5076 30.6387 63.6858 36.7526 63.4261 43.1718C63.1659 49.6011 60.4569 56.3176 56.0667 61.6834L56.8406 62.3166ZM56.764 25.608C47.9168 18.6039 37.6874 16.595 27.7133 22.0615L28.1939 22.9385C37.7401 17.7064 47.5377 19.5793 56.1433 26.392L56.764 25.608ZM27.7133 22.0615C18.5557 27.0806 15.9892 36.8239 16.946 47.3742C17.9033 57.9288 22.3879 69.4343 27.5215 78.2516L28.3857 77.7484C23.3016 69.0162 18.8823 57.6518 17.9419 47.2839C17.0012 36.9116 19.5436 27.6795 28.1939 22.9385L27.7133 22.0615ZM27.5215 78.2516C29.2973 81.3015 33.452 86.4846 37.8786 91.698C42.3165 96.9246 47.0624 102.222 50.049 105.515L50.7898 104.843C47.8062 101.553 43.0686 96.2654 38.6409 91.0507C34.2019 85.8228 30.1088 80.7079 28.3857 77.7484L27.5215 78.2516Z" fill="black"/>
</svg>
